<?xml version="1.0" encoding="UTF-8"?>
<svg version="1.1" viewBox="3 4 64 64" xmlns="http://www.w3.org/2000/svg">
<g>
<path d="m15.876 62.029-7.9554-6.5012 27.06-45.993 27.088 46.093-7.9839 6.3301-15.169-10.351h8.7252l-12.717-22.241-12.575 22.184h8.6682z" fill="none" stroke="#000" stroke-width=".26458px"/>
<path d="m34.998 9.7762c-0.49551 0.32199-0.68641 0.9702-1.0392 1.4305-5.8833 9.8048-11.635 19.688-17.44 29.539-2.8571 4.894-5.7578 9.7642-8.5631 14.687 0.028383 0.49591 0.67061 0.669 0.96099 1.021 2.2616 1.8557 4.5258 3.7083 6.7895 5.5615 0.48089 0.14401 0.83146-0.4468 1.2485-0.62469 4.5233-3.1198 9.0381-6.2518 13.556-9.3788 0.37817-0.56725-0.53124-0.51192-0.875-0.48586-2.3614-0.02127-4.7525 7.94e-4 -7.0929-0.07538 4.0937-7.3097 8.2403-14.59 12.369-21.88 4.2036 7.2755 8.3737 14.571 12.511 21.886-2.6614 0.08848-5.3441 0.01238-7.999 0.10405-0.52012 0.35163 0.32958 0.6954 0.59283 0.907 4.6399 3.158 9.264 6.3396 13.921 9.4718 0.48024 0.0844 0.78001-0.4836 1.1735-0.6892 2.2823-1.8312 4.6411-3.5761 6.8275-5.5219 0.28546-0.39902-0.28343-0.79224-0.40484-1.1651-8.7341-14.895-17.474-29.787-26.24-44.663-0.061918-0.10859-0.18024-0.13559-0.29582-0.12397z" stroke-width=".080649"/>
</g>
</svg>