<?xml version="1.0" encoding="UTF-8" standalone="no"?>
<!-- Created with Inkscape (http://www.inkscape.org/) -->

<svg
   width="128"
   height="128"
   viewBox="0 0 33.866666 33.866668"
   version="1.1"
   id="svg5"
   sodipodidocname="Predator.svg"
   inkscapeversion="1.1.2 (b8e25be833, 2022-02-05)"
   xmlnsinkscape="http://www.inkscape.org/namespaces/inkscape"
   xmlnssodipodi="http://sodipodi.sourceforge.net/DTD/sodipodi-0.dtd"
   xmlns="http://www.w3.org/2000/svg"
   xmlnssvg="http://www.w3.org/2000/svg">
  <sodipodinamedview
     id="namedview8"
     pagecolor="#ffffff"
     bordercolor="#666666"
     borderopacity="1.0"
     inkscapepageshadow="2"
     inkscapepageopacity="0.0"
     inkscapepagecheckerboard="0"
     showgrid="false"
     inkscapezoom="5.0859375"
     inkscapecx="64"
     inkscapecy="64.09831"
     inkscapewindow-width="1600"
     inkscapewindow-height="837"
     inkscapewindow-x="-8"
     inkscapewindow-y="-8"
     inkscapewindow-maximized="1"
     inkscapecurrent-layer="svg5" />
  <defs
     id="defs2" />
  <g
     id="layer4"
     style="display:none">
    <g
       id="g22257"
       style="stroke-width:0.132292;stroke-miterlimit:4;stroke-dasharray:none" />
  </g>
  <g
     id="layer5"
     transform="translate(0,1.5606759)">
    <path
       id="path25005-6"
       style="fill:#f12720;fill-opacity:1;stroke:#f12720;stroke-width:0.171991;stroke-linecap:butt;stroke-linejoin:miter;stroke-miterlimit:4;stroke-dasharray:none;stroke-opacity:1"
       d="m 7.0697213,3.4385876 c -0.088781,-5.503e-4 -0.1764481,0.00117 -0.2640322,0.0047 C 2.325268,3.623555 -0.27121541,8.0871931 0.56700386,11.964208 1.3263115,15.476234 3.8088202,16.552866 4.8372046,19.246929 5.083413,19.891922 4.7365137,21.273551 4.6054205,21.869784 5.4185461,20.727469 5.4066468,19.370831 5.2853202,18.307028 5.0186579,15.968885 3.9858504,14.760271 3.2751816,12.765711 2.7095304,11.178153 3.2670327,9.5348022 3.7642798,8.9731861 5.3511802,7.1808656 6.9572058,7.2513243 8.3939136,8.5351483 8.8326092,8.9271605 8.5804875,9.9541057 8.0519482,11.521467 c -0.107218,0.317958 -0.2583541,0.560548 -0.088016,0.823673 0.3776228,0.583305 1.4309221,1.722455 2.9863188,3.585599 0.171677,0.205643 0.0057,1.448204 -0.798144,2.477738 -0.02717,0.211774 0.118087,0.493903 0.646309,0.581139 0.465358,0.07685 0.563422,1.070785 0.874061,2.429364 0.03608,0.157815 0.233616,0.233206 0.371526,0.34331 0.177452,1.018986 0.145028,1.985481 0.17199,2.966835 0.184472,-0.546488 0.405672,-1.056248 0.515971,-1.676906 0.982522,0.710446 1.314058,0.552926 1.848899,0.666463 0.141691,1.854807 0.384274,2.902473 0.601967,4.149269 0.11455,-1.177729 0.05684,-2.470304 0.386978,-3.504305 0.279259,0.175071 0.649113,0.31508 1.451169,0.292921 0.802057,0.02754 1.021419,-0.117852 1.300679,-0.292921 0.330146,1.034001 0.272426,2.326576 0.386978,3.504305 0.217693,-1.246796 0.460276,-2.294462 0.601967,-4.149269 0.53484,-0.113537 0.866375,0.04398 1.848897,-0.666463 0.110299,0.620658 0.331499,1.130418 0.515971,1.676906 0.02696,-0.981354 -0.0055,-1.947849 0.171991,-2.966835 0.13791,-0.110104 0.335443,-0.185495 0.371527,-0.34331 0.310638,-1.358579 0.408702,-2.352513 0.87406,-2.429364 0.528226,-0.08724 0.673475,-0.369363 0.646308,-0.581139 -0.803843,-1.029533 -0.96982,-2.272095 -0.798144,-2.477738 1.555397,-1.863144 2.608698,-3.002293 2.98632,-3.585598 0.170344,-0.263126 0.0192,-0.505716 -0.08802,-0.823673 -0.528538,-1.567361 -0.780662,-2.5943062 -0.341965,-2.9863197 1.436707,-1.2838234 3.042734,-1.354282 4.629632,0.4380391 0.497249,0.5616161 1.054749,2.2049666 0.4891,3.7925236 -0.710668,1.994561 -1.743478,3.203175 -2.01014,5.541319 -0.121324,1.063802 -0.133225,2.42044 0.679901,3.562755 -0.131094,-0.596232 -0.477993,-1.977862 -0.231785,-2.622855 1.028386,-2.694063 3.510893,-3.770695 4.2702,-7.282721 0.838219,-3.8770149 -1.758262,-8.3406532 -6.238684,-8.5209185 -2.802686,-0.1127629 -6.278795,1.856265 -6.545044,6.49264 1.184197,3.2147215 0.288287,3.6841415 -0.370183,4.9467415 l -0.644964,-0.795456 -1.547914,1.031943 c -0.295306,0.740838 -0.585413,1.48211 -1.048067,2.209003 -0.480847,-0.736335 -0.725329,-1.472668 -1.015819,-2.209003 l -1.547914,-1.031943 -0.644963,0.795456 c -0.658457,-1.2626 -1.554367,-1.73202 -0.37017,-4.9467415 C 13.092803,5.4444423 9.8219443,3.4559328 7.0697213,3.4385876 Z M 11.293566,14.16918 c 1.381252,1.272789 2.534034,2.52768 4.418004,3.783119 l 0.106828,0.07122 -0.0383,0.122273 c -0.174739,0.56001 -0.288661,0.789958 -0.406461,0.929152 -0.05889,0.06959 -0.11368,0.109662 -0.149821,0.139742 -0.03615,0.03008 -0.06091,0.05121 -0.101446,0.114213 l -0.07591,0.114212 -0.12967,-0.04568 c -0.457526,-0.167045 -0.648917,-0.340887 -0.863311,-0.507909 -0.172622,0.814173 -0.18694,1.638976 -0.27411,2.491174 H 13.436731 C 13.341451,20.372641 13.127922,19.335285 13.231149,18.277478 13.031634,18.075615 12.884541,17.84965 12.768925,17.642592 12.641257,17.413969 12.529551,17.215452 12.392695,17.091684 12.192267,16.910411 12.008838,16.7677 11.821634,16.59654 L 11.79342,16.571 11.778638,16.53539 C 11.407059,15.643 11.30245,15.074501 11.016773,14.359307 Z m 11.25597,0 0.276797,0.19013 c -0.285677,0.715194 -0.389651,1.283689 -0.761193,2.176083 l -0.01274,0.03561 -0.02821,0.02553 c -0.187203,0.17116 -0.373323,0.31387 -0.57375,0.495144 -0.136853,0.123768 -0.247888,0.322285 -0.375557,0.550907 -0.115616,0.207058 -0.262711,0.433024 -0.462224,0.634886 0.103226,1.057807 -0.110976,2.095165 -0.206255,3.10322 h -0.342636 c -0.08717,-0.852201 -0.101485,-1.677002 -0.27411,-2.491176 -0.214395,0.167022 -0.405785,0.340864 -0.863313,0.50791 l -0.12967,0.04568 -0.07591,-0.114213 c -0.04054,-0.06299 -0.06329,-0.08413 -0.09943,-0.114212 -0.03616,-0.03008 -0.09294,-0.07015 -0.151835,-0.139742 -0.117801,-0.139194 -0.231723,-0.369143 -0.406463,-0.929152 l -0.03829,-0.122273 0.106815,-0.07122 c 1.883971,-1.255439 3.036754,-2.510329 4.418007,-3.783118 z m -6.652538,6.340133 0.155195,0.0692 c -0.108739,0.446881 -0.218792,0.89063 -0.27411,1.330238 0.351036,0.39773 0.543646,0.79933 0.680571,1.191168 l 0.0047,0.01274 -0.01274,0.672509 -0.0027,0.241191 -0.14982,-0.190131 c -0.218862,-0.279387 -0.412046,-0.555558 -0.72362,-0.767234 l -0.01014,-0.0074 -0.0074,-0.0074 c -0.305024,-0.371072 -0.380409,-0.742743 -0.50792,-1.089742 l -0.01274,-0.03561 0.01478,-0.03023 c 0.389853,-0.824638 0.563835,-0.992903 0.845844,-1.389361 z m 2.044402,0 c 0.0055,0.0078 0.0094,0.02067 0.01478,0.02821 0.272498,0.380297 0.45084,0.552608 0.833079,1.361143 l 0.01544,0.03023 -0.01274,0.03561 c -0.127512,0.346999 -0.205583,0.717998 -0.510596,1.089049 l -0.0074,0.0081 -0.01014,0.0074 C 17.95225,23.28073 17.76108,23.556902 17.54227,23.836294 l -0.149821,0.19013 -0.01478,-0.913699 0.0047,-0.01274 c 0.13636,-0.390218 0.329718,-0.789685 0.677884,-1.185794 -0.05511,-0.441186 -0.162293,-0.887769 -0.271421,-1.336285 z" />
  </g>
</svg>
